<svg width="380" height="140" viewBox="0 0 380 140" fill="none" xmlns="http://www.w3.org/2000/svg">
<path fill-rule="evenodd" clip-rule="evenodd" d="M124.947 57.0544C123.811 57.7908 122.35 58.1597 120.561 58.1597H110.598V49.32H120.348C121.314 49.32 122.278 49.4495 123.244 49.7094C124.209 49.9703 125.018 50.4181 125.671 51.0528C126.324 51.6885 126.65 52.5554 126.65 53.6525C126.65 55.1847 126.082 56.3179 124.947 57.0544ZM110.598 36.8399H119.625C121.157 36.8399 122.449 37.1432 123.499 37.7501C124.549 38.3566 125.075 39.3676 125.075 40.783C125.075 42.0544 124.577 43.0366 123.584 43.7302C122.59 44.4229 121.441 44.7845 120.136 44.8128H110.598V36.8399ZM128.417 47.5867C127.551 46.951 126.607 46.4599 125.586 46.1133C126.948 45.5351 127.984 44.7043 128.694 43.6212C129.402 42.5378 129.758 41.3179 129.758 39.9604C129.758 37.4756 128.935 35.5831 127.288 34.2826C125.642 32.9834 123.201 32.3332 119.966 32.3332H106V62.6665H120.646C121.896 62.6665 123.144 62.5297 124.393 62.2547C125.642 61.9807 126.792 61.511 127.842 60.8466C128.892 60.1817 129.737 59.272 130.376 58.116C131.015 56.9614 131.333 55.5021 131.333 53.7392C131.333 52.2955 131.064 51.0674 130.524 50.0565C129.984 49.0459 129.282 48.2224 128.417 47.5867Z" fill="white"/>
<path fill-rule="evenodd" clip-rule="evenodd" d="M146.474 50.7932L149.57 43.5124C149.971 42.5593 150.359 41.5634 150.731 40.5228C151.103 39.4826 151.491 38.4141 151.893 37.3161C152.265 38.3854 152.639 39.4174 153.011 40.4147C153.383 41.4115 153.756 42.3861 154.13 43.3396L157.312 50.7932H146.474ZM149.527 32.3332L136.667 62.6665H141.441L144.581 55.2995H159.205L162.302 62.6665H167.334L154.559 32.3332H149.527Z" fill="white"/>
<path fill-rule="evenodd" clip-rule="evenodd" d="M198.983 36.8399V42.3002V55.519L179.381 32.3332H175V36.8399V62.6665H179.684V50.0565V40.125L199.2 62.6665H203.667V59.6158V36.8399V32.3332H198.983V36.8399Z" fill="white"/>
<path fill-rule="evenodd" clip-rule="evenodd" d="M236.694 52.8516C235.956 54.455 234.797 55.741 233.219 56.7086C231.641 57.6768 229.592 58.1601 227.073 58.1601H218.691V36.84H227.073C229.564 36.84 231.605 37.3316 233.198 38.3134C234.79 39.2952 235.956 40.5957 236.694 42.2137C237.432 43.8312 237.802 45.5932 237.802 47.4994C237.802 49.4643 237.432 51.2483 236.694 52.8516ZM241.689 41.671C241.038 39.8369 240.061 38.219 238.757 36.8181C237.454 35.4177 235.847 34.3191 233.936 33.5247C232.024 32.7304 229.81 32.3332 227.291 32.3332H214V62.6665H227.291C230.649 62.6665 233.472 61.9811 235.76 60.6085C238.048 59.2368 239.77 57.4022 240.929 55.1048C242.087 52.8083 242.666 50.2733 242.666 47.4994C242.666 45.4491 242.341 43.506 241.689 41.671Z" fill="white"/>
<path fill-rule="evenodd" clip-rule="evenodd" d="M119.977 92.3864C120.855 92.3864 121.67 92.1557 122.421 91.6928C123.17 91.2313 123.773 90.6176 124.227 89.8519C124.68 89.0867 124.907 88.2422 124.907 87.317C124.907 86.4218 124.68 85.6128 124.227 84.8905C123.773 84.1682 123.17 83.59 122.421 83.1563C121.67 82.724 120.855 82.5074 119.977 82.5074H110.924V92.3864H119.977ZM120.529 78.0002C122.173 78.0002 123.688 78.412 125.077 79.2351C126.464 80.0586 127.577 81.1713 128.413 82.5717C129.248 83.973 129.667 85.5554 129.667 87.317C129.667 89.1091 129.235 90.7252 128.371 92.1698C127.506 93.6145 126.359 94.7631 124.928 95.615C123.497 96.4673 121.917 96.8932 120.189 96.8932H110.924V108.334H106.334V78.0002H120.529Z" fill="white"/>
<path fill-rule="evenodd" clip-rule="evenodd" d="M152.825 82.5011H143.901V92.4968H153.544C154.53 92.4968 155.398 92.265 156.145 91.8047C156.891 91.3434 157.469 90.7295 157.878 89.9654C158.287 89.2009 158.492 88.3712 158.492 87.4768C158.492 86.496 158.238 85.6308 157.731 84.8808C157.223 84.1308 156.539 83.547 155.679 83.1281C154.819 82.7101 153.867 82.5011 152.825 82.5011ZM163.229 87.5196C163.229 89.4818 162.651 91.2628 161.494 92.8647C160.338 94.4654 158.858 95.6265 157.055 96.3478L164.667 108.334L159.042 108.291L151.979 96.9963H143.901V108.291H139.333V78.0002H153.797C155.404 78.0002 156.927 78.3968 158.365 79.1901C159.803 79.9838 160.972 81.1017 161.875 82.5443C162.777 83.9869 163.229 85.6449 163.229 87.5196Z" fill="white"/>
<path fill-rule="evenodd" clip-rule="evenodd" d="M198.591 93.166C198.591 91.0714 198.102 89.1979 197.125 87.5483C196.148 85.8977 194.797 84.5915 193.073 83.6292C191.349 82.6677 189.38 82.1875 187.167 82.1875C184.896 82.1875 182.906 82.6677 181.196 83.6292C179.486 84.5915 178.149 85.8977 177.187 87.5483C176.223 89.1979 175.742 91.0714 175.742 93.166C175.742 95.2615 176.223 97.1345 177.187 98.7846C178.149 100.436 179.486 101.741 181.196 102.702C182.906 103.665 184.896 104.145 187.167 104.145C189.38 104.145 191.349 103.665 193.073 102.702C194.797 101.741 196.148 100.428 197.125 98.7633C198.102 97.0992 198.591 95.2329 198.591 93.166ZM203.333 93.166C203.333 95.3471 202.938 97.3792 202.147 99.2585C201.357 101.139 200.236 102.782 198.785 104.188C197.334 105.595 195.623 106.693 193.655 107.482C191.686 108.271 189.523 108.666 187.167 108.666C184.81 108.666 182.639 108.271 180.657 107.482C178.673 106.693 176.963 105.595 175.527 104.188C174.089 102.782 172.976 101.139 172.185 99.2585C171.395 97.3792 171 95.3471 171 93.166C171 90.9853 171.395 88.9546 172.185 87.0739C172.976 85.1941 174.089 83.5508 175.527 82.1444C176.963 80.7385 178.673 79.6403 180.657 78.8501C182.639 78.0609 184.81 77.6662 187.167 77.6662C189.523 77.6662 191.686 78.0609 193.655 78.8501C195.623 79.6403 197.334 80.7385 198.785 82.1444C200.236 83.5508 201.357 85.1941 202.147 87.0739C202.938 88.9546 203.333 90.9853 203.333 93.166Z" fill="white"/>
<path fill-rule="evenodd" clip-rule="evenodd" d="M217.1 108.334V82.5074H207.667V78.0002H231.334V82.5074H221.648V108.334H217.1Z" fill="white"/>
<path fill-rule="evenodd" clip-rule="evenodd" d="M262.924 93.166C262.924 91.0714 262.435 89.1979 261.458 87.5483C260.481 85.8977 259.13 84.5915 257.406 83.6292C255.682 82.6677 253.713 82.1875 251.499 82.1875C249.229 82.1875 247.239 82.6677 245.529 83.6292C243.819 84.5915 242.482 85.8977 241.52 87.5483C240.557 89.1979 240.075 91.0714 240.075 93.166C240.075 95.2615 240.557 97.1345 241.52 98.7846C242.482 100.436 243.819 101.741 245.529 102.702C247.239 103.665 249.229 104.145 251.499 104.145C253.713 104.145 255.682 103.665 257.406 102.702C259.13 101.741 260.481 100.428 261.458 98.7633C262.435 97.0992 262.924 95.2329 262.924 93.166ZM267.666 93.166C267.666 95.3471 267.271 97.3792 266.48 99.2585C265.69 101.139 264.569 102.782 263.118 104.188C261.667 105.595 259.956 106.693 257.988 107.482C256.019 108.271 253.856 108.666 251.499 108.666C249.143 108.666 246.973 108.271 244.99 107.482C243.007 106.693 241.297 105.595 239.86 104.188C238.423 102.782 237.309 101.139 236.519 99.2585C235.728 97.3792 235.333 95.3471 235.333 93.166C235.333 90.9853 235.728 88.9546 236.519 87.0739C237.309 85.1941 238.423 83.5508 239.86 82.1444C241.297 80.7385 243.007 79.6403 244.99 78.8501C246.973 78.0609 249.143 77.6662 251.499 77.6662C253.856 77.6662 256.019 78.0609 257.988 78.8501C259.956 79.6403 261.667 80.7385 263.118 82.1444C264.569 83.5508 265.69 85.1941 266.48 87.0739C267.271 88.9546 267.666 90.9853 267.666 93.166Z" fill="white"/>
<path fill-rule="evenodd" clip-rule="evenodd" d="M302.234 103.921C301.543 104.607 300.599 105.285 299.404 105.956C298.209 106.627 296.833 107.191 295.277 107.648C293.722 108.104 292.065 108.333 290.308 108.333C288.118 108.333 286.074 107.969 284.172 107.241C282.271 106.512 280.607 105.477 279.181 104.135C277.755 102.794 276.647 101.173 275.855 99.2737C275.061 97.3757 274.666 95.2556 274.666 92.9137C274.666 90.7156 275.083 88.6883 275.919 86.8318C276.754 84.9763 277.914 83.3632 279.397 81.9926C280.881 80.622 282.574 79.5588 284.474 78.8016C286.376 78.0457 288.392 77.6662 290.524 77.6662C292.31 77.6662 293.988 77.9173 295.558 78.4162C297.128 78.9165 298.525 79.5515 299.75 80.3223C300.974 81.0934 301.946 81.9065 302.666 82.7633L299.685 86.2757C298.417 85.1047 297.013 84.1416 295.472 83.3844C293.931 82.6285 292.223 82.249 290.351 82.249C288.507 82.249 286.75 82.6777 285.08 83.5345C283.409 84.3908 282.048 85.619 280.996 87.2176C279.945 88.8172 279.419 90.7156 279.419 92.9137C279.419 95.3128 279.959 97.3108 281.039 98.9099C282.12 100.51 283.531 101.715 285.274 102.529C287.017 103.344 288.896 103.75 290.913 103.75C292.958 103.75 294.729 103.358 296.228 102.572C297.725 101.787 298.964 100.966 299.944 100.109L302.234 103.921Z" fill="white"/>
<path fill-rule="evenodd" clip-rule="evenodd" d="M335.924 93.166C335.924 91.0714 335.434 89.1979 334.458 87.5483C333.481 85.8977 332.13 84.5915 330.405 83.6292C328.681 82.6677 326.712 82.1875 324.5 82.1875C322.229 82.1875 320.238 82.6677 318.528 83.6292C316.818 84.5915 315.481 85.8977 314.519 87.5483C313.556 89.1979 313.075 91.0714 313.075 93.166C313.075 95.2615 313.556 97.1345 314.519 98.7846C315.481 100.436 316.818 101.741 318.528 102.702C320.238 103.665 322.229 104.145 324.5 104.145C326.712 104.145 328.681 103.665 330.405 102.702C332.13 101.741 333.481 100.428 334.458 98.7633C335.434 97.0992 335.924 95.2329 335.924 93.166ZM340.666 93.166C340.666 95.3471 340.27 97.3792 339.481 99.2585C338.689 101.139 337.569 102.782 336.117 104.188C334.666 105.595 332.956 106.693 330.988 107.482C329.019 108.271 326.855 108.666 324.5 108.666C322.142 108.666 319.973 108.271 317.99 107.482C316.007 106.693 314.296 105.595 312.86 104.188C311.422 102.782 310.309 101.139 309.519 99.2585C308.727 97.3792 308.333 95.3471 308.333 93.166C308.333 90.9853 308.727 88.9546 309.519 87.0739C310.309 85.1941 311.422 83.5508 312.86 82.1444C314.296 80.7385 316.007 79.6403 317.99 78.8501C319.973 78.0609 322.142 77.6662 324.5 77.6662C326.855 77.6662 329.019 78.0609 330.988 78.8501C332.956 79.6403 334.666 80.7385 336.117 82.1444C337.569 83.5508 338.689 85.1941 339.481 87.0739C340.27 88.9546 340.666 90.9853 340.666 93.166Z" fill="white"/>
<path fill-rule="evenodd" clip-rule="evenodd" d="M370 103.827V108.334H349V78.0002H353.61V103.827H370Z" fill="white"/>
<path fill-rule="evenodd" clip-rule="evenodd" d="M77.3314 87.7899C77.3314 95.8772 70.716 102.456 62.5827 102.456H34.3056L63.6927 73.2338C71.2996 73.8101 77.3314 80.0802 77.3314 87.7899ZM30.1357 71.9112V37.9247H62.5827C63.1372 37.9247 63.6841 37.9545 64.2227 38.0149L30.1357 71.9112ZM83.2284 52.5922C83.2284 45.7458 79.8422 39.6728 74.6477 35.9405L88.6667 22L80.2801 22.0478L69.1423 33.1225C67.0807 32.4343 64.8748 32.0607 62.5827 32.0607H24.2386V86.0674L70.4034 40.1611C74.5614 42.7581 77.3314 47.3595 77.3314 52.5922C77.3314 60.6795 70.716 67.2583 62.5827 67.2583H61.362L10 118.333H18.3389L28.4085 108.32H62.5827C73.9665 108.32 83.2284 99.11 83.2284 87.7899C83.2284 80.3239 79.1879 73.7961 73.1801 70.2023C79.1942 66.6094 83.2284 60.0618 83.2284 52.5922Z" fill="white"/>
</svg>
