<svg width="380" height="140" viewBox="0 0 380 140" fill="none" xmlns="http://www.w3.org/2000/svg">
<path d="M91.0746 113.302C88.7878 112.987 86.5439 112.415 84.3854 111.597L81.8933 110.482L85.3691 104.711C87.2709 101.564 88.976 98.8747 89.1071 98.678C89.2383 98.4813 91.1401 98.8747 93.3043 99.3994C104.322 101.957 112.388 99.7929 116.454 93.1037C117.25 91.8231 117.952 90.4861 118.553 89.1033C118.553 88.9065 116.979 89.4967 115.143 90.4149C112.257 91.7921 110.749 92.12 106.42 92.12C100.584 92.12 97.8293 91.0051 95.3373 87.6605C91.4025 82.3485 97.2391 64.0516 105.896 54.4768C115.208 44.1807 133.308 40.9673 146.621 47.1974C149.31 48.4435 150.687 49.4927 150.49 49.9518C150.294 50.4109 146.687 59.6577 142.49 70.4784C138.292 81.2992 133.899 91.9232 132.784 94.0874C129.964 99.5305 121.963 107.466 116.651 110.089C109.437 113.761 101.338 114.811 91.0746 113.302ZM121.635 77.2332C123.34 75.4626 130.554 58.5428 129.964 57.5591C129.373 56.5754 124.455 56.9689 122.094 58.0838C118.815 59.6577 116.979 62.1497 114.618 68.3143C111.995 75.3314 111.601 77.1021 112.716 78.4137C114.093 80.0532 119.536 79.3318 121.668 77.2332H121.635Z" fill="white"/>
<path d="M221.382 113.184C219.283 112.725 217.381 112.2 217.185 111.938C216.463 111.217 223.808 99.3466 224.858 99.6089C226.576 99.8164 228.307 99.9041 230.038 99.8712C235.219 99.9368 237.908 98.6908 240.269 95.1494L241.908 92.6574L241.843 68.9173V45.2297H260.861L260.796 47.0659C260.796 48.0496 260.271 54.2798 259.615 60.969C258.959 67.6582 258.5 73.1669 258.5 73.2325C258.5 73.2981 262.566 67.0024 267.419 59.3295L276.273 45.2953L285.716 45.2297C293.127 45.2297 294.963 45.4264 294.504 46.0822C294.11 46.4757 284.864 58.8048 273.912 73.4292C262.96 88.0536 251.942 102.088 249.385 104.58C241.056 112.909 232.399 115.532 221.382 113.184Z" fill="white"/>
<path d="M299.751 93.103C295.947 92.316 294.439 91.3979 292.996 88.9714C290.635 85.1677 291.291 81.3641 296.865 67.002C298.702 62.149 300.21 58.0831 300.21 57.9519C300.21 57.8207 298.439 57.6896 296.21 57.6896C293.98 57.6896 292.34 57.4928 292.472 57.2305C292.603 56.9682 293.98 54.1482 295.619 51.0004L298.505 45.2949L302.046 45.0982L305.522 44.9014L307.621 39.655L309.719 34.4086L318.245 33.3593C322.966 32.769 326.836 32.3756 326.967 32.4411C326.378 34.5402 325.655 36.5993 324.803 38.6057C323.557 41.9503 322.507 44.8358 322.507 44.967C322.507 45.0982 325.458 45.2293 329.065 45.2293C332.672 45.2293 335.623 45.2949 335.623 45.4261C335.623 45.5572 334.246 48.246 332.541 51.4594L329.393 57.3617L323.426 57.5584L317.458 57.7552L314.113 66.4118C312.342 71.1991 310.637 75.6586 310.441 76.3144C310.35 76.8043 310.361 77.3076 310.474 77.7928C310.587 78.278 310.799 78.7347 311.096 79.1344C312.08 80.7083 312.408 80.7739 317.326 80.5115C320.146 80.3804 322.507 80.3148 322.507 80.3804C322.507 80.446 321.065 83.0692 319.294 86.2826C316.802 90.7421 315.687 92.1848 314.31 92.5783C311.228 93.3653 302.669 93.6932 299.751 93.103Z" fill="white"/>
<path d="M338.18 92.9065C327.36 89.8242 326.245 80.1839 334.77 63.0674C338.246 56.1815 343.755 50.4104 349.591 47.5249C360.215 42.3441 373.987 43.131 378.447 49.23C381.135 52.9025 380.283 60.0507 376.283 68.5106C374.709 71.7896 373.856 72.7733 372.217 73.3636C371.036 73.757 365.199 74.0849 358.248 74.0849H346.247L345.919 75.9212C345.46 78.3477 346.903 80.3807 349.46 80.9053C352.346 81.4955 360.019 81.3644 365.462 80.643C367.004 80.3997 368.558 80.2464 370.118 80.1839C370.184 80.2495 368.741 82.8727 366.905 86.0206L363.56 91.7261L359.625 92.4474C353.165 93.6279 341.591 93.8902 338.18 92.9065ZM363.757 61.8214C364.675 58.608 364.675 58.608 363.429 57.4275C362.117 56.0503 358.379 56.1159 355.494 57.4275C353.526 58.4112 350.05 62.4116 350.05 63.7232C350.05 64.0512 353.002 64.2479 356.608 64.2479H363.101L363.757 61.8214Z" fill="white"/>
<path d="M0.0481539 91.332C0.179315 90.6762 4.44203 79.5276 9.49172 66.5427C14.5414 53.5577 19.9846 39.5891 21.5585 35.5232L24.444 28.047L40.1833 28.3093C54.5454 28.5716 56.2505 28.7028 59.6607 30.08C67.3336 33.0967 70.3503 39.3268 68.514 48.2457C67.1368 54.5415 62.743 66.0836 59.3328 72.0514C55.398 79.0029 49.299 85.1019 43.0033 88.1186C35.5271 91.8567 31.8546 92.3813 14.6726 92.4469C0.70396 92.4469 -0.279748 92.3813 0.0481539 91.332ZM36.8387 75.7895C40.708 73.5598 44.0526 68.5756 46.9381 60.9027C50.8729 50.2787 51.1352 47.5899 48.7744 44.77C47.266 43.0649 46.9381 42.9993 41.4949 42.9337H35.7567L29.3298 59.5911C25.7884 68.7724 22.7062 76.7076 22.5094 77.2978C22.2471 78.216 22.9029 78.2815 27.9526 78.0192C32.6416 77.6913 34.2155 77.2978 36.8387 75.8026V75.7895Z" fill="white"/>
<path d="M62.2847 91.8573C62.4159 91.595 66.4818 80.971 71.3348 68.2484L80.1881 45.2297H88.648C96.3209 45.2297 97.0423 45.2953 96.7144 46.4101C96.5832 47.0003 93.0419 56.2472 88.9103 66.8712C84.7787 77.4952 80.8439 87.5946 80.1881 89.3652L79.0077 92.4475H70.5478C65.9244 92.4475 62.1535 92.1983 62.2847 91.8573Z" fill="white"/>
<path d="M144.784 91.9229C144.784 91.6606 147.735 83.7253 151.407 74.3473C155.08 64.9694 159.048 54.6077 160.359 51.3286L162.72 45.2297H171.114C175.771 45.2297 179.574 45.2953 179.574 45.4264C179.574 45.5576 175.508 56.0504 170.524 68.8386L161.474 92.1196L153.145 92.3164C148.555 92.3819 144.784 92.2508 144.784 91.9229Z" fill="white"/>
<path d="M172.393 91.9888C172.393 91.6609 177.902 77.2989 184.657 59.9856L196.92 28.5071H213.315C231.481 28.5071 233.055 28.7694 236.531 32.3763C239.482 35.4586 239.875 39.1311 237.908 44.771C236.072 49.9519 232.858 54.5425 229.055 57.1657C226.235 59.1987 226.235 59.1987 227.481 60.5103C229.448 62.6089 230.169 66.2814 229.382 69.8883C228.132 75.3178 225.336 80.2692 221.333 84.1444C217.33 88.0197 212.29 90.653 206.823 91.7265C202.429 92.5135 172.328 92.7102 172.393 91.9888ZM208.266 78.0202C212.135 75.6593 214.365 68.3143 211.741 66.8716C211.02 66.5437 207.675 66.2158 204.331 66.2158H198.166L196.133 71.6589C195.018 74.6101 193.904 77.5612 193.641 78.217C193.182 79.2007 193.772 79.3318 199.609 79.3318C204.987 79.3318 206.495 79.0826 208.266 78.0202ZM215.086 52.4439C216.638 51.9172 218.025 50.9917 219.107 49.7601C220.189 48.5285 220.928 47.0341 221.251 45.4268C221.906 42.0166 220.595 41.2952 213.643 41.2952H208.003L205.642 47.1975L203.282 53.0997H207.938C210.336 53.1078 212.729 52.8883 215.086 52.4439Z" fill="white"/>
<path d="M86.7454 41.294C82.9417 40.1136 82.0892 36.7034 84.4501 32.1783C86.9421 27.1942 92.2541 24.4399 98.0908 25.0957C99.546 25.2263 100.945 25.7226 102.157 26.5384C105.37 29.424 102.222 37.5559 96.8448 40.3103C94.5494 41.5563 89.1719 42.0154 86.7454 41.294Z" fill="white"/>
<path d="M169.311 41.4916C167.081 41.0981 165.507 38.8684 165.573 36.3763C165.639 33.2941 168.524 28.6379 171.344 26.8672C174.426 24.9654 179.804 24.4407 182.952 25.7523C185.903 26.9983 186.624 29.1625 185.378 32.9662C183.312 39.3275 176.459 42.9344 169.311 41.4916Z" fill="white"/>
</svg>
