<svg width="380" height="140" viewBox="0 0 380 140" fill="none" xmlns="http://www.w3.org/2000/svg">
<path d="M287.618 70.3112C287.618 68.2701 287.618 66.386 287.54 64.6589C287.461 62.9318 287.304 61.2832 287.069 59.7917C286.833 58.3001 286.362 56.887 285.734 55.5525C285.106 54.2179 284.164 52.9618 282.986 51.7843C281.338 50.1357 279.532 48.8796 277.491 48.0161C275.45 47.1526 273.095 46.6815 270.426 46.6815C267.757 46.6815 265.401 47.1526 263.36 48.0161C261.319 48.8796 259.435 50.1357 257.787 51.7843C256.609 52.9618 255.746 54.2179 255.117 55.5525C254.489 56.887 254.018 58.3001 253.783 59.7917C253.547 61.2832 253.39 62.9318 253.312 64.6589C253.233 66.386 253.233 68.2701 253.233 70.3112C253.233 72.3523 253.233 74.1579 253.312 75.9635C253.39 77.6906 253.547 79.3391 253.783 80.8307C254.018 82.3223 254.489 83.7353 255.117 85.0699C255.746 86.4045 256.688 87.6605 257.787 88.8381C259.435 90.4867 261.241 91.7427 263.36 92.6063C265.401 93.4698 267.757 93.9408 270.426 93.9408C273.095 93.9408 275.371 93.4698 277.491 92.6063C279.532 91.7427 281.416 90.4867 282.986 88.8381C284.164 87.6605 285.027 86.4045 285.734 85.0699C286.362 83.7353 286.833 82.3223 287.069 80.8307C287.304 79.3391 287.54 77.6906 287.54 75.9635C287.618 74.1579 287.618 72.3523 287.618 70.3112ZM278.59 70.3112C278.59 72.5093 278.59 74.3934 278.512 75.885C278.433 77.3765 278.355 78.5541 278.119 79.4961C277.962 80.4382 277.727 81.2232 277.413 81.7728C277.099 82.4008 276.785 82.9503 276.314 83.4213C275.685 84.2064 274.822 84.7559 273.88 85.2269C272.859 85.6979 271.76 85.8549 270.504 85.9334C269.248 85.9334 268.149 85.6979 267.129 85.2269C266.108 84.7559 265.323 84.2064 264.616 83.4213C264.145 82.9503 263.831 82.4008 263.517 81.7728C263.203 81.1447 262.968 80.4382 262.811 79.4961C262.654 78.5541 262.497 77.3765 262.497 75.885C262.418 74.3934 262.418 72.5878 262.418 70.3112C262.418 68.1131 262.418 66.229 262.497 64.7374C262.575 63.2458 262.654 62.0683 262.811 61.1262C262.968 60.1842 263.203 59.3991 263.517 58.8496C263.831 58.2216 264.145 57.6721 264.616 57.201C265.244 56.416 266.108 55.8665 267.129 55.3955C268.149 54.9244 269.248 54.7674 270.504 54.6889C271.76 54.6889 272.859 54.9244 273.88 55.3955C274.822 55.8665 275.685 56.416 276.314 57.201C276.785 57.6721 277.099 58.2216 277.413 58.8496C277.727 59.4776 277.962 60.1842 278.119 61.1262C278.276 62.0683 278.433 63.2458 278.512 64.7374C278.512 66.229 278.59 68.1131 278.59 70.3112Z" fill="white"/>
<path d="M360 47.8577C360 47.3866 359.607 47.0726 359.215 47.0726H351.757C351.286 47.0726 350.972 47.4652 350.972 47.8577V75.5695L332.68 47.3081C332.523 47.1511 332.445 47.0726 332.209 47.0726H325.223C324.83 47.0726 324.438 47.4652 324.438 47.8577C324.438 62.8519 324.438 77.8462 324.438 92.7619C324.438 93.2329 324.83 93.5469 325.223 93.5469H332.68C333.151 93.5469 333.465 93.1544 333.465 92.7619V64.9715L351.757 93.3114C351.914 93.4684 351.992 93.5469 352.228 93.5469H359.215C359.686 93.5469 360 93.1544 360 92.7619V47.8577Z" fill="white"/>
<path d="M309.757 47.8577C309.757 47.3866 309.364 47.0726 308.972 47.0726H301.514C301.043 47.0726 300.729 47.4652 300.729 47.8577V92.7619C300.729 93.2329 301.121 93.5469 301.514 93.5469H308.972C309.443 93.5469 309.757 93.1544 309.757 92.7619V47.8577Z" fill="white"/>
<path d="M220.185 70.3112C220.185 68.1131 220.185 66.229 220.263 64.7374C220.342 63.2458 220.42 62.0683 220.577 61.1262C221.284 57.1225 224.346 54.7674 228.271 54.7674C230.861 54.7674 233.138 55.7095 234.63 57.9076C235.258 58.8496 235.729 59.9487 236.043 61.2047C236.043 61.3617 236.121 61.4402 236.278 61.4402H245.071C245.228 61.4402 245.228 61.3617 245.228 61.2047C244.286 55.788 241.381 50.8422 236.2 48.4086C233.845 47.3096 231.097 46.6815 228.114 46.6815C223.168 46.6815 218.929 48.4086 215.553 51.7843C213.591 53.7469 212.335 56.102 211.785 58.7711C211.235 61.3617 211 65.2084 211 70.3112C211 75.4139 211.235 79.2606 211.785 81.8513C212.335 84.5204 213.669 86.8755 215.553 88.8381C218.929 92.2138 223.168 93.9408 228.114 93.9408C231.097 93.9408 233.766 93.3913 236.2 92.2138C241.302 89.7801 244.286 84.9129 245.228 79.4176C245.228 79.2606 245.228 79.1821 245.071 79.1821H236.278C236.121 79.1821 236.043 79.2606 236.043 79.4176C235.729 80.6737 235.258 81.7727 234.63 82.7148C233.138 84.8344 230.861 85.7764 228.271 85.8549C224.346 85.8549 221.284 83.4998 220.577 79.4961C220.42 78.5541 220.263 77.3765 220.263 75.885C220.185 74.3934 220.185 72.5093 220.185 70.3112Z" fill="white"/>
<path d="M127.079 47.8595C127.079 47.3885 126.686 47.0745 126.293 47.0745H118.836C118.365 47.0745 118.051 47.467 118.051 47.8595V92.7637C118.051 93.2347 118.443 93.5488 118.836 93.5488H126.293C126.764 93.5488 127.079 93.1562 127.079 92.7637V79.5751L133.123 72.3527L145.448 93.3132C145.527 93.4702 145.684 93.5488 145.919 93.5488H155.026C155.418 93.5488 155.497 93.3132 155.34 92.9207L139.168 65.5229L154.005 47.7025C154.319 47.31 154.162 46.996 153.691 46.996H143.721C143.564 46.996 143.486 46.996 143.407 47.153L127.079 66.7004V47.8595Z" fill="white"/>
<path d="M181.639 85.8535C177.4 85.8535 173.632 81.9283 173.632 77.2966V47.8577C173.632 47.3866 173.24 47.0726 172.847 47.0726H165.389C164.918 47.0726 164.604 47.4652 164.604 47.8577V77.2181C164.604 87.5021 172.297 94.018 181.718 94.018C191.138 94.018 198.832 87.5021 198.832 77.2181V47.8577C198.832 47.3866 198.439 47.0726 198.047 47.0726H190.589C190.118 47.0726 189.804 47.4652 189.804 47.8577V77.2966C189.647 81.9283 185.8 85.8535 181.639 85.8535Z" fill="white"/>
<path d="M42.6876 70.3108L65.9248 93.5479L80.605 78.8677C83.1956 76.2771 87.4348 76.2771 90.0255 78.8677C92.6161 81.4583 92.6161 85.6976 90.0255 88.2882L70.635 107.679C68.0444 110.269 63.8052 110.269 61.2145 107.679L33.3457 79.7313V96.3741C33.3457 99.9853 30.3625 103.047 26.6728 103.047C22.9831 103.047 20 100.064 20 96.3741V44.4045C20 40.7149 22.9831 37.7317 26.6728 37.7317C30.3625 37.7317 33.3457 40.7149 33.3457 44.4045V60.8903L61.293 32.943C63.8837 30.3523 68.1229 30.3523 70.7135 32.943L90.104 52.3334C92.6946 54.9241 92.6946 59.1633 90.104 61.7539C87.5133 64.3445 83.2741 64.3445 80.6835 61.7539L66.0033 47.0737L42.6876 70.3108ZM66.0033 63.638C62.3136 63.638 59.3304 66.6211 59.3304 70.3108C59.3304 74.0005 62.3136 76.9836 66.0033 76.9836C69.6929 76.9836 72.6761 74.0005 72.6761 70.3108C72.5976 66.6211 69.6144 63.638 66.0033 63.638Z" fill="white"/>
</svg>
