<svg width="1458" height="552" viewBox="0 0 1458 552" fill="none" xmlns="http://www.w3.org/2000/svg">
<path d="M1264.95 176.074C1270.98 176.074 1276.37 177.328 1281.1 179.835C1285.93 182.343 1289.7 186.058 1292.39 190.98C1295.08 195.902 1296.43 201.845 1296.43 208.81V254.083H1280.69V211.178C1280.69 204.306 1278.97 199.059 1275.53 195.437C1272.1 191.723 1267.41 189.865 1261.46 189.865C1255.52 189.865 1250.78 191.723 1247.25 195.437C1243.82 199.059 1242.1 204.306 1242.1 211.178V254.083H1226.22V177.328H1242.1V186.104C1244.7 182.946 1248 180.485 1251.99 178.721C1256.08 176.956 1260.4 176.074 1264.95 176.074Z" fill="white"/>
<path d="M1116.54 151V254.084H1100.66V151H1116.54Z" fill="white"/>
<path d="M1085.03 213.825C1085.03 216.704 1084.84 219.304 1084.47 221.626H1025.83C1026.29 227.755 1028.56 232.677 1032.65 236.392C1036.74 240.107 1041.75 241.964 1047.7 241.964C1056.24 241.964 1062.28 238.389 1065.81 231.238H1082.94C1080.62 238.296 1076.39 244.1 1070.26 248.651C1064.23 253.108 1056.7 255.337 1047.7 255.337C1040.36 255.337 1033.77 253.712 1027.91 250.462C1022.16 247.118 1017.61 242.475 1014.26 236.531C1011.01 230.495 1009.39 223.53 1009.39 215.636C1009.39 207.742 1010.97 200.824 1014.12 194.88C1017.37 188.844 1021.88 184.2 1027.64 180.95C1033.49 177.699 1040.17 176.074 1047.7 176.074C1054.94 176.074 1061.39 177.653 1067.06 180.81C1072.72 183.968 1077.14 188.426 1080.29 194.184C1083.45 199.848 1085.03 206.396 1085.03 213.825ZM1068.45 208.81C1068.36 202.96 1066.27 198.27 1062.18 194.741C1058.1 191.212 1053.04 189.447 1047 189.447C1041.52 189.447 1036.83 191.212 1032.93 194.741C1029.03 198.177 1026.71 202.867 1025.96 208.81H1068.45Z" fill="white"/>
<path d="M962.852 176.074C968.889 176.074 974.275 177.328 979.011 179.835C983.84 182.343 987.602 186.058 990.295 190.98C993.081 195.902 994.474 201.845 994.474 208.81V254.083H978.733V211.178C978.733 204.306 977.015 199.059 973.578 195.437C970.142 191.723 965.452 189.865 959.509 189.865C953.565 189.865 948.829 191.723 945.3 195.437C941.864 199.059 940.146 204.306 940.146 211.178V254.083H924.405V211.178C924.405 204.306 922.687 199.059 919.251 195.437C915.814 191.723 911.125 189.865 905.181 189.865C899.237 189.865 894.501 191.723 890.972 195.437C887.536 199.059 885.818 204.306 885.818 211.178V254.083H869.938V177.328H885.818V186.104C888.418 182.946 891.715 180.485 895.708 178.721C899.702 176.956 903.974 176.074 908.524 176.074C914.654 176.074 920.133 177.374 924.962 179.975C929.791 182.575 933.506 186.336 936.106 191.258C938.428 186.615 942.05 182.946 946.972 180.253C951.894 177.467 957.187 176.074 962.852 176.074Z" fill="white"/>
<path d="M832.355 188.472C834.677 184.572 837.741 181.553 841.549 179.417C845.45 177.189 850.046 176.074 855.34 176.074V192.512H851.3C845.078 192.512 840.342 194.091 837.091 197.248C833.934 200.406 832.355 205.885 832.355 213.686V254.083H816.475V177.328H832.355V188.472Z" fill="white"/>
<path d="M800.847 213.825C800.847 216.704 800.661 219.304 800.29 221.626H741.644C742.108 227.755 744.383 232.677 748.47 236.392C752.556 240.107 757.571 241.964 763.514 241.964C772.058 241.964 778.095 238.389 781.624 231.238H798.758C796.436 238.296 792.21 244.1 786.081 248.651C780.045 253.108 772.522 255.337 763.514 255.337C756.178 255.337 749.584 253.712 743.733 250.462C737.975 247.118 733.425 242.475 730.082 236.531C726.831 230.495 725.206 223.53 725.206 215.636C725.206 207.742 726.785 200.824 729.942 194.88C733.193 188.844 737.697 184.2 743.455 180.95C749.305 177.699 755.992 176.074 763.514 176.074C770.758 176.074 777.212 177.653 782.877 180.81C788.542 183.968 792.953 188.426 796.111 194.184C799.268 199.848 800.847 206.396 800.847 213.825ZM784.27 208.81C784.177 202.96 782.088 198.27 778.002 194.741C773.915 191.212 768.854 189.447 762.818 189.447C757.338 189.447 752.649 191.212 748.748 194.741C744.848 198.177 742.526 202.867 741.783 208.81H784.27Z" fill="white"/>
<path d="M697.196 190.283V232.77C697.196 235.649 697.847 237.739 699.147 239.039C700.54 240.246 702.861 240.85 706.112 240.85H715.863V254.084H703.326C696.175 254.084 690.696 252.412 686.888 249.069C683.081 245.725 681.177 240.293 681.177 232.77V190.283H672.122V177.328H681.177V158.244H697.196V177.328H715.863V190.283H697.196Z" fill="white"/>
<path d="M578.966 215.357C578.966 207.649 580.545 200.824 583.702 194.88C586.952 188.936 591.317 184.339 596.797 181.089C602.369 177.746 608.498 176.074 615.184 176.074C621.221 176.074 626.468 177.282 630.926 179.696C635.476 182.018 639.098 184.943 641.791 188.472V177.328H657.811V254.083H641.791V242.661C639.098 246.283 635.43 249.301 630.786 251.715C626.143 254.13 620.849 255.337 614.906 255.337C608.312 255.337 602.276 253.666 596.797 250.322C591.317 246.886 586.952 242.15 583.702 236.113C580.545 229.984 578.966 223.066 578.966 215.357ZM641.791 215.636C641.791 210.343 640.677 205.746 638.448 201.845C636.312 197.945 633.479 194.973 629.95 192.93C626.421 190.887 622.614 189.865 618.528 189.865C614.441 189.865 610.634 190.887 607.105 192.93C603.576 194.88 600.697 197.805 598.468 201.706C596.332 205.513 595.264 210.064 595.264 215.357C595.264 220.651 596.332 225.294 598.468 229.288C600.697 233.281 603.576 236.346 607.105 238.482C610.727 240.525 614.534 241.546 618.528 241.546C622.614 241.546 626.421 240.525 629.95 238.482C633.479 236.439 636.312 233.467 638.448 229.566C640.677 225.573 641.791 220.93 641.791 215.636Z" fill="white"/>
<path d="M571.161 157.269L542.465 254.084H524.495L504.157 180.811L482.565 254.084L464.735 254.223L437.292 157.269H454.148L474.207 236.114L495.938 157.269H513.769L533.968 235.696L554.167 157.269H571.161Z" fill="white"/>
<path d="M937.998 294.796V397.88H922.117V294.796H937.998Z" fill="white"/>
<path d="M822.414 359.153C822.414 351.445 823.993 344.619 827.15 338.676C830.401 332.732 834.765 328.135 840.245 324.885C845.817 321.542 851.946 319.87 858.632 319.87C864.669 319.87 869.916 321.077 874.374 323.492C878.924 325.814 882.546 328.739 885.239 332.268V321.124H901.259V397.879H885.239V386.457C882.546 390.078 878.878 393.097 874.234 395.511C869.591 397.926 864.297 399.133 858.354 399.133C851.76 399.133 845.724 397.461 840.245 394.118C834.765 390.682 830.401 385.946 827.15 379.909C823.993 373.78 822.414 366.861 822.414 359.153ZM885.239 359.432C885.239 354.138 884.125 349.542 881.896 345.641C879.76 341.741 876.927 338.769 873.398 336.726C869.869 334.683 866.062 333.661 861.976 333.661C857.889 333.661 854.082 334.683 850.553 336.726C847.024 338.676 844.145 341.601 841.916 345.502C839.78 349.309 838.712 353.86 838.712 359.153C838.712 364.447 839.78 369.09 841.916 373.084C844.145 377.077 847.024 380.142 850.553 382.278C854.175 384.321 857.982 385.342 861.976 385.342C866.062 385.342 869.869 384.321 873.398 382.278C876.927 380.234 879.76 377.263 881.896 373.362C884.125 369.369 885.239 364.725 885.239 359.432Z" fill="white"/>
<path d="M794.404 334.079V376.566C794.404 379.445 795.054 381.535 796.354 382.835C797.748 384.042 800.069 384.646 803.32 384.646H813.071V397.88H800.534C793.383 397.88 787.903 396.208 784.096 392.865C780.288 389.521 778.384 384.089 778.384 376.566V334.079H769.33V321.124H778.384V302.04H794.404V321.124H813.071V334.079H794.404Z" fill="white"/>
<path d="M755.027 321.124V397.88H739.147V321.124H755.027Z" fill="white"/>
<path d="M660.618 332.407C663.311 328.878 666.979 325.907 671.622 323.492C676.266 321.077 681.513 319.87 687.364 319.87C694.05 319.87 700.133 321.542 705.612 324.885C711.184 328.135 715.549 332.732 718.707 338.676C721.864 344.619 723.443 351.445 723.443 359.153C723.443 366.861 721.864 373.78 718.707 379.909C715.549 385.946 711.184 390.682 705.612 394.118C700.133 397.461 694.05 399.133 687.364 399.133C681.513 399.133 676.312 397.972 671.762 395.651C667.211 393.236 663.496 390.264 660.618 386.735V434.377H644.737V321.124H660.618V332.407ZM707.284 359.153C707.284 353.86 706.169 349.309 703.941 345.502C701.805 341.601 698.926 338.676 695.304 336.726C691.775 334.683 687.967 333.661 683.881 333.661C679.888 333.661 676.08 334.683 672.458 336.726C668.929 338.769 666.05 341.741 663.821 345.641C661.686 349.542 660.618 354.138 660.618 359.432C660.618 364.725 661.686 369.369 663.821 373.362C666.05 377.263 668.929 380.234 672.458 382.278C676.08 384.321 679.888 385.342 683.881 385.342C687.967 385.342 691.775 384.321 695.304 382.278C698.926 380.142 701.805 377.077 703.941 373.084C706.169 369.09 707.284 364.447 707.284 359.153Z" fill="white"/>
<path d="M545.034 359.153C545.034 351.445 546.612 344.619 549.77 338.676C553.02 332.732 557.385 328.135 562.864 324.885C568.436 321.542 574.566 319.87 581.252 319.87C587.289 319.87 592.536 321.077 596.993 323.492C601.544 325.814 605.166 328.739 607.859 332.268V321.124H623.879V397.879H607.859V386.457C605.166 390.078 601.498 393.097 596.854 395.511C592.211 397.926 586.917 399.133 580.974 399.133C574.38 399.133 568.344 397.461 562.864 394.118C557.385 390.682 553.02 385.946 549.77 379.909C546.612 373.78 545.034 366.861 545.034 359.153ZM607.859 359.432C607.859 354.138 606.745 349.542 604.516 345.641C602.38 341.741 599.547 338.769 596.018 336.726C592.489 334.683 588.682 333.661 584.596 333.661C580.509 333.661 576.702 334.683 573.173 336.726C569.644 338.676 566.765 341.601 564.536 345.502C562.4 349.309 561.332 353.86 561.332 359.153C561.332 364.447 562.4 369.09 564.536 373.084C566.765 377.077 569.644 380.142 573.173 382.278C576.795 384.321 580.602 385.342 584.596 385.342C588.682 385.342 592.489 384.321 596.018 382.278C599.547 380.234 602.38 377.263 604.516 373.362C606.745 369.369 607.859 364.725 607.859 359.432Z" fill="white"/>
<path d="M437.292 349.263C437.292 339.79 439.474 331.293 443.839 323.771C448.297 316.248 454.287 310.398 461.809 306.218C469.424 301.947 477.736 299.811 486.744 299.811C497.053 299.811 506.2 302.364 514.187 307.472C522.266 312.487 528.117 319.638 531.739 328.925H512.655C510.147 323.817 506.665 320.009 502.207 317.502C497.749 314.994 492.595 313.741 486.744 313.741C480.336 313.741 474.625 315.18 469.61 318.059C464.595 320.938 460.648 325.071 457.769 330.457C454.983 335.843 453.59 342.112 453.59 349.263C453.59 356.414 454.983 362.682 457.769 368.069C460.648 373.455 464.595 377.634 469.61 380.606C474.625 383.485 480.336 384.924 486.744 384.924C492.595 384.924 497.749 383.671 502.207 381.163C506.665 378.656 510.147 374.848 512.655 369.74H531.739C528.117 379.027 522.266 386.178 514.187 391.193C506.2 396.208 497.053 398.715 486.744 398.715C477.643 398.715 469.332 396.626 461.809 392.447C454.287 388.175 448.297 382.278 443.839 374.755C439.474 367.233 437.292 358.735 437.292 349.263Z" fill="white"/>
<path fill-rule="evenodd" clip-rule="evenodd" d="M162 210.041C263.469 210.508 345.581 292.908 345.581 394.486C345.581 395.354 345.575 396.22 345.563 397.084H397.524C397.533 396.219 397.538 395.353 397.538 394.486C397.538 264.213 292.164 158.551 162 158.084L162 210.041Z" fill="white"/>
<path fill-rule="evenodd" clip-rule="evenodd" d="M186.688 242.109C187.116 240.602 185.722 239.211 184.215 239.641L174.087 242.532C168.258 244.196 166.323 251.503 170.582 255.762C174.846 260.027 182.162 258.081 183.817 252.243L186.688 242.109ZM189.218 270.642C190.725 270.212 192.118 271.603 191.691 273.11L186.955 289.822C184.499 298.487 173.642 301.374 167.313 295.046C160.991 288.724 163.864 277.879 172.515 275.41L189.218 270.642ZM200.96 314.829C201.387 313.322 199.994 311.931 198.487 312.361L174.416 319.232C162.603 322.604 158.68 337.413 167.313 346.046C175.955 354.688 190.782 350.745 194.135 338.913L200.96 314.829ZM244.9 365.693C246.026 366.783 245.518 368.686 243.998 369.07L219.729 375.2C207.805 378.212 196.977 367.344 200.141 355.538C203.3 343.746 218.087 339.739 226.914 348.283L244.9 365.693ZM207.9 395.693C209.026 396.783 208.518 398.686 206.998 399.07L182.729 405.2C170.805 408.212 159.977 397.344 163.141 385.538C166.3 373.746 181.087 369.739 189.914 378.283L207.9 395.693ZM245.911 264.822C247.43 265.203 247.942 267.104 246.818 268.196L239.264 275.536C234.912 279.765 227.604 277.792 226.043 271.967C224.484 266.149 229.814 260.788 235.694 262.262L245.911 264.822ZM286.92 314.831C288.439 314.447 288.947 312.545 287.821 311.455L280.253 304.129C275.898 299.914 268.602 301.891 267.043 307.709C265.482 313.534 270.825 318.897 276.708 317.411L286.92 314.831ZM316.703 360.3C317.134 361.806 315.743 363.2 314.235 362.773L304.101 359.901C298.263 358.247 296.318 350.931 300.582 346.667C304.841 342.407 312.148 344.343 313.812 350.171L316.703 360.3ZM242.69 303.637C243.814 302.545 243.303 300.644 241.783 300.263L224.933 296.041C216.207 293.854 208.297 301.809 210.61 310.445C212.927 319.09 223.774 322.018 230.233 315.742L242.69 303.637ZM274.119 342.17C275.245 343.26 274.737 345.163 273.218 345.546L256.377 349.801C247.645 352.007 239.716 344.047 242.032 335.402C244.346 326.766 255.174 323.832 261.638 330.089L274.119 342.17ZM288.22 394.747C289.728 395.174 291.119 393.781 290.689 392.274L285.921 375.571C283.451 366.92 272.606 364.047 266.285 370.369C259.956 376.698 262.843 387.555 271.508 390.011L288.22 394.747Z" fill="white"/>
<path fill-rule="evenodd" clip-rule="evenodd" d="M1167.01 240.805C1167.01 240.785 1167.02 240.765 1167.02 240.745L1167.51 239.044C1168.13 236.829 1170.91 236.091 1172.53 237.709C1173.44 238.626 1173.6 239.916 1173.17 240.975C1177.01 240.62 1180.6 239.413 1183.76 237.545C1181.84 237.564 1180.29 235.736 1180.82 233.77C1181.41 231.56 1184.18 230.811 1185.83 232.416L1187.1 233.648C1187.41 233.951 1187.6 234.317 1187.67 234.696C1189.37 233.199 1190.86 231.48 1192.11 229.584C1190.71 229.745 1189.26 228.916 1188.85 227.39C1188.26 225.18 1190.29 223.146 1192.52 223.71L1194.23 224.143C1194.42 224.19 1194.59 224.26 1194.75 224.349C1195.55 222.149 1196.06 219.806 1196.23 217.369C1196.2 217.361 1196.16 217.353 1196.13 217.343L1194.43 216.861C1192.21 216.233 1191.47 213.458 1193.09 211.84C1193.88 211.054 1194.94 210.824 1195.89 211.049C1195.48 208.743 1194.75 206.545 1193.76 204.499C1193.65 205.251 1193.12 205.936 1192.27 206.149L1190.56 206.582C1188.33 207.146 1186.3 205.112 1186.89 202.902C1187.48 200.694 1190.25 199.944 1191.9 201.544L1192.38 202.002C1190.63 199.236 1188.37 196.828 1185.73 194.914C1185.82 195.515 1185.64 196.159 1185.14 196.644L1183.88 197.876C1182.23 199.481 1179.45 198.732 1178.86 196.522C1178.3 194.417 1180.11 192.469 1182.21 192.779C1179.43 191.384 1176.36 190.482 1173.11 190.188L1172.81 191.251C1172.19 193.466 1169.41 194.204 1167.79 192.586C1167.17 191.959 1166.89 191.158 1166.92 190.376C1164.2 190.79 1161.62 191.633 1159.26 192.835C1160.81 193.218 1161.92 194.819 1161.46 196.525C1160.87 198.735 1158.09 199.484 1156.44 197.879L1155.18 196.647C1154.93 196.406 1154.76 196.126 1154.66 195.831C1152.93 197.252 1151.38 198.898 1150.07 200.724C1151.5 200.51 1153.01 201.342 1153.43 202.905C1154.02 205.115 1151.99 207.149 1149.76 206.585L1148.05 206.152C1147.74 206.075 1147.47 205.936 1147.26 205.754C1146.56 207.428 1146.03 209.192 1145.7 211.025C1146.25 211.131 1146.78 211.398 1147.23 211.843C1148.85 213.461 1148.11 216.236 1145.89 216.864L1145.33 217.023C1145.48 219.749 1146.06 222.361 1147.01 224.793C1147.26 224.489 1147.61 224.255 1148.05 224.145L1149.76 223.712C1151.99 223.148 1154.02 225.183 1153.43 227.393C1152.94 229.227 1150.94 230.055 1149.33 229.365C1150.77 231.594 1152.54 233.585 1154.58 235.265C1154.52 234.699 1154.71 234.104 1155.18 233.65L1156.44 232.418C1158.09 230.814 1160.87 231.562 1161.46 233.772C1162.05 235.98 1160.03 238.013 1157.8 237.454L1157.58 237.4C1160.41 239.116 1163.6 240.298 1167.01 240.805ZM1210.29 215.584C1210.29 237.399 1192.61 255.084 1170.79 255.084C1148.98 255.084 1131.29 237.399 1131.29 215.584C1131.29 193.769 1148.98 176.084 1170.79 176.084C1192.61 176.084 1210.29 193.769 1210.29 215.584ZM1175.67 200.214C1176.09 198.707 1174.7 197.316 1173.19 197.746L1169.61 198.769C1166.59 199.631 1165.59 203.416 1167.79 205.623C1170 207.832 1173.79 206.824 1174.65 203.799L1175.67 200.214ZM1185.71 208.786C1186.83 209.876 1186.32 211.779 1184.8 212.163L1181.19 213.075C1178.14 213.845 1175.38 211.067 1176.18 208.049C1176.99 205.035 1180.77 204.011 1183.03 206.195L1185.71 208.786ZM1176.25 216.455C1177.37 217.545 1176.87 219.447 1175.35 219.831L1171.73 220.744C1168.69 221.514 1165.92 218.735 1166.73 215.718C1167.53 212.703 1171.31 211.679 1173.57 213.863L1176.25 216.455ZM1154.61 208.789C1153.49 209.879 1154 211.782 1155.52 212.165L1159.13 213.078C1162.18 213.848 1164.94 211.07 1164.14 208.052C1163.33 205.038 1159.55 204.014 1157.29 206.198L1154.61 208.789ZM1164.65 230.08C1164.23 231.588 1165.62 232.979 1167.13 232.549L1170.71 231.526C1173.73 230.664 1174.73 226.879 1172.53 224.672C1170.32 222.463 1166.53 223.471 1165.67 226.495L1164.65 230.08ZM1155.52 218.132C1154 218.516 1153.49 220.418 1154.61 221.508L1157.29 224.1C1159.55 226.284 1163.33 225.26 1164.14 222.245C1164.94 219.228 1162.18 216.45 1159.13 217.219L1155.52 218.132ZM1186.76 218.129C1188.28 218.513 1188.79 220.416 1187.66 221.506L1184.99 224.097C1182.73 226.281 1178.95 225.257 1178.14 222.243C1177.33 219.225 1180.1 216.447 1183.15 217.217L1186.76 218.129Z" fill="white"/>
<path d="M746.515 310.78C745.769 311.461 744.564 311.058 744.378 310.065L741.399 294.194C739.936 286.397 747.366 279.859 754.841 282.367C762.307 284.873 764.296 294.553 758.443 299.895L746.515 310.78Z" fill="white"/>
</svg>
