<svg width="380" height="140" viewBox="0 0 380 140" fill="none" xmlns="http://www.w3.org/2000/svg">
<path d="M238.056 54.5688C237.571 54.48 237.08 54.4259 236.587 54.4072C236.046 54.3832 235.603 54.3712 235.258 54.3712C234.887 54.3712 234.465 54.3712 233.983 54.4072C233.519 54.429 233.057 54.483 232.6 54.5688V70.0502C232.6 71.7261 232.282 72.989 231.646 73.839C231.009 74.6889 229.96 75.1148 228.497 75.1168C227.023 75.1168 225.97 74.6909 225.34 73.839C224.71 72.987 224.394 71.7241 224.394 70.0502V57.8009C224.394 56.5879 224.121 55.708 223.574 55.1613C223.027 54.6166 222.225 54.3413 221.165 54.3413H219.169L218.936 54.5927V70.0023C218.936 72.0134 219.311 73.7222 220.061 75.1288C220.785 76.5146 221.923 77.6402 223.317 78.349C224.735 79.0892 226.456 79.4583 228.479 79.4563C230.502 79.4543 232.232 79.0852 233.669 78.349C235.066 77.6423 236.208 76.5164 236.934 75.1288C237.682 73.7322 238.056 72.0234 238.056 70.0023V54.5688ZM240.268 78.5106L240.465 78.7949C240.869 78.9206 241.284 79.0078 241.704 79.0553C242.169 79.1159 242.636 79.1478 243.105 79.151C243.521 79.151 243.925 79.1511 244.302 79.1181C244.669 79.0966 245.034 79.0425 245.391 78.9565L249.207 66.1327C249.387 65.5132 249.584 64.8189 249.806 64.0378C250.027 63.2567 250.234 62.4875 250.431 61.7034C250.629 60.9193 250.784 60.2071 250.901 59.5606H251.116C251.402 60.7039 251.726 61.9409 252.089 63.2716C252.452 64.6024 252.778 65.7715 253.068 66.7791L255.794 76.287C256.129 77.4512 256.539 78.2353 257.027 78.6333C257.608 79.0616 258.321 79.2733 259.041 79.2318C259.604 79.2276 260.165 79.1715 260.717 79.0643C261.228 78.9791 261.722 78.8135 262.181 78.5735L254.459 54.6017C253.943 54.5077 253.421 54.4477 252.897 54.4221C252.284 54.3862 251.76 54.3682 251.32 54.3682C250.88 54.3682 250.338 54.3832 249.731 54.4131C249.206 54.435 248.682 54.4859 248.163 54.5658L240.259 78.5076L240.268 78.5106ZM253.54 73.7222H254.139L254.854 73.7043H255.453H258.272L256.898 69.4396H254.325H253.726L253.05 69.4217H252.451H249.722H249.123L248.444 69.4396H247.872H245.394L243.718 73.7043H246.552H247.151L247.854 73.7222H248.453H253.54ZM265.338 78.9326C265.791 79.0194 266.25 79.0734 266.712 79.0942C267.199 79.1151 267.609 79.1301 267.924 79.1301C268.238 79.1301 268.657 79.1301 269.094 79.0942C269.534 79.0695 269.972 79.0155 270.405 78.9326V71.2682C270.405 70.2926 270.387 69.1843 270.351 67.9433C270.315 66.7023 270.264 65.4593 270.198 64.2143C270.132 62.9713 270.058 61.8561 269.977 60.8685L270.351 60.7637L271.724 54.5568C271.145 54.4734 270.562 54.4195 269.977 54.3952C269.392 54.3712 268.922 54.3593 268.567 54.3593C268.212 54.3593 267.691 54.3832 267.005 54.4311C266.445 54.4633 265.888 54.5343 265.338 54.6436V78.9206V78.9326ZM278.057 78.9326L282.513 75.9728L279.769 72.98L278.769 70.5649C278.37 69.6192 277.948 68.6286 277.503 67.5931L271.715 54.5688L267.594 57.9027L270.108 60.8296C270.372 61.5299 270.678 62.314 271.027 63.1818C271.376 64.0497 271.748 64.9416 272.143 65.8573L278.048 78.9326H278.057ZM284.261 54.3353H282.513C281.458 54.3353 280.689 54.5827 280.206 55.0775C279.723 55.5723 279.481 56.4253 279.481 57.6363V62.6312C279.481 63.4512 279.481 64.4567 279.526 65.6538C279.571 66.8509 279.601 68.0869 279.661 69.3708C279.721 70.6547 279.796 71.8398 279.891 72.9202L279.499 73.0459L278.057 78.9326C278.655 79.0164 279.241 79.0702 279.814 79.0942C280.388 79.1151 280.861 79.1301 281.229 79.1301C281.597 79.1301 282.127 79.1032 282.818 79.0583C283.387 79.0261 283.953 78.9541 284.512 78.8428V54.5867L284.261 54.3353ZM291.413 59.0968C291.677 59.0968 292.048 59.0968 292.53 59.0818C293.012 59.0668 293.383 59.0638 293.643 59.0638H299.102C299.365 59.0638 299.736 59.0638 300.218 59.0818C300.7 59.0998 301.071 59.0968 301.331 59.0968H302.529C303.526 59.0968 304.252 58.9132 304.707 58.5461C305.168 58.178 305.402 57.5465 305.402 56.6547C305.4 56.2904 305.376 55.9266 305.33 55.5653C305.29 55.2287 305.225 54.8956 305.135 54.5688H287.661C287.578 54.9637 287.521 55.3636 287.49 55.7659C287.46 56.1639 287.445 56.523 287.445 56.8462C287.445 57.1694 287.445 57.5046 287.49 57.8967C287.521 58.299 287.578 58.6988 287.661 59.0938L291.413 59.0968ZM293.643 78.9326C294.115 79.0173 294.592 79.0713 295.071 79.0942C295.558 79.1151 295.992 79.1301 296.372 79.1301C296.753 79.1301 297.172 79.1301 297.665 79.0942C298.147 79.0716 298.627 79.0176 299.102 78.9326V61.6915C299.102 61.2046 299.096 60.7677 299.084 60.3806C299.084 59.9946 299.066 59.5487 299.066 59.0519V56.8043H293.679V59.0519C293.679 59.5487 293.679 59.9946 293.661 60.3806C293.643 60.7667 293.643 61.2096 293.643 61.7094V78.9206V78.9326Z" fill="white"/>
<path d="M100.276 17.4831L130.883 53.1984L151.389 40.8025C151.389 40.8025 126.565 7.7298 120.208 10.124C113.852 12.5182 100.276 17.4831 100.276 17.4831Z" fill="white"/>
<path d="M151.835 40.841C154.912 34.894 157.207 28.5738 158.661 22.0377C158.661 22.0377 181.84 31.1865 173.137 54.3832L151.835 40.841Z" fill="white"/>
<path d="M173.137 54.383L175.092 78.8666L184.091 77.852C184.091 77.852 186.59 77.2146 186.12 72.6596C185.65 68.1047 184.833 58.4292 184.833 58.4292C184.833 58.4292 185.24 55.9871 179.718 55.221C173.155 54.3232 173.134 54.383 173.134 54.383H173.137Z" fill="white"/>
<path d="M175.092 78.8671L157.222 93.1843L165.521 109.046C165.521 109.046 167.616 115.103 173.137 108.205C178.659 101.307 180.775 99.9598 180.488 95.794C180.2 91.6281 179.024 81.7281 175.101 78.8611L175.092 78.8671Z" fill="white"/>
<path d="M157.222 93.1834L132.817 82.4395L111.287 125.37C111.287 125.37 109.811 128.273 115.237 128.976C120.663 129.68 129.549 131.628 134.163 127.097C138.778 122.566 157.222 93.1834 157.222 93.1834Z" fill="white"/>
<path d="M132.702 81.8357L130.398 53.2941L77.8633 56.7986C77.8633 56.7986 74.7 57.3402 75.0232 62.9516C75.4781 70.7746 76.2382 79.0495 76.2382 79.0495C76.2382 79.0495 75.9958 82.6767 82.9001 83.0658C89.8043 83.4548 131.864 83.5296 132.702 81.8507V81.8357Z" fill="white"/>
<path d="M215.188 66.6923C215.206 64.9579 214.992 63.2289 214.554 61.5508C214.182 60.0998 213.528 58.7362 212.629 57.5376C211.768 56.4154 210.645 55.5214 209.358 54.9339C207.88 54.291 206.28 53.9785 204.669 54.0181C202.293 54.0181 200.328 54.5468 198.776 55.6043C197.196 56.6976 195.987 58.2455 195.308 60.0425C194.509 62.1605 194.122 64.4113 194.167 66.6744C194.15 68.4186 194.363 70.1576 194.802 71.8458C195.173 73.3016 195.827 74.6703 196.726 75.874C197.584 77.0021 198.707 77.8998 199.997 78.4867C201.469 79.1307 203.063 79.4443 204.669 79.4055C205.163 79.4055 205.626 79.3666 206.081 79.3217C205.237 78.0797 204.232 76.5115 203.304 75.0361C202.876 74.918 202.476 74.7144 202.128 74.4375C201.473 73.8928 200.973 73.186 200.677 72.3875C200.333 71.4991 200.108 70.5694 200.006 69.6222C199.779 67.6736 199.779 65.7051 200.006 63.7565C200.106 62.8159 200.332 61.893 200.677 61.0121C200.975 60.2201 201.476 59.5197 202.128 58.9801C202.881 58.4773 203.766 58.209 204.672 58.209C205.577 58.209 206.462 58.4773 207.216 58.9801C207.868 59.5197 208.368 60.2201 208.667 61.0121C209.01 61.893 209.233 62.8161 209.328 63.7565C209.54 65.706 209.54 67.6727 209.328 69.6222L212.438 76.0686C213.109 75.2502 213.648 74.3324 214.036 73.3482C214.835 71.221 215.222 68.9612 215.176 66.6894L215.188 66.6923Z" fill="white"/>
<path d="M202.191 71.3011L207.665 68.7812L212.492 78.8458C212.492 78.8458 212.824 79.5252 211.594 79.6898C210.364 79.8544 208.386 80.3122 207.351 79.2498C206.315 78.1874 202.191 71.3011 202.191 71.3011Z" fill="white"/>
</svg>
