<svg width="380" height="140" viewBox="0 0 380 140" fill="none" xmlns="http://www.w3.org/2000/svg">
<path d="M143.453 78.2356C143.453 74.1151 143.453 69.9946 143.453 65.8226C143.453 64.1229 143.247 63.9684 141.548 63.9169H141.136C137.685 63.9169 137.685 63.8654 137.685 60.5175C137.685 58.5602 137.685 56.6545 137.736 54.6973C137.788 53.1521 138.148 52.8431 139.642 52.8431C140.414 52.8431 141.136 52.7916 141.908 52.8431C143.041 52.8946 143.505 52.328 143.453 51.2464C143.453 48.2075 143.453 45.1687 143.453 42.1298C143.453 40.4301 143.659 40.2241 145.359 40.2241C148.14 40.2241 150.922 40.1726 153.652 40.2241C155.815 40.2756 156.072 40.5331 156.072 42.6964C156.072 45.2717 156.072 47.8985 156.072 50.4738C156.072 52.74 156.175 52.8431 158.493 52.8431C160.193 52.8431 161.944 52.8946 163.644 52.8431C164.777 52.8431 165.343 53.2551 165.343 54.4398C165.343 57.0666 165.343 59.6934 165.343 62.3717C165.343 63.5048 164.828 63.9684 163.747 63.9169C161.79 63.9169 159.884 63.9169 157.927 63.9169C156.33 63.9169 156.124 64.1744 156.072 65.7711C156.072 72.0033 156.072 78.2356 156.072 84.4678C156.072 88.5368 157.978 90.391 162.099 90.494C165.034 90.5971 165.034 90.5971 165.034 93.5844C165.034 95.5416 165.034 97.5504 165.034 99.5076C165.034 100.538 164.622 101.104 163.592 101.156C159.06 101.465 154.527 101.619 150.098 100.332C146.338 99.2501 144.174 96.6748 143.659 92.8118C143.041 88.4853 143.505 84.1073 143.402 79.7808C143.453 79.3172 143.453 78.8021 143.453 78.2356Z" fill="white"/>
<path d="M232.92 68.0883C232.92 58.1476 232.92 48.207 232.92 38.3178C232.92 36.103 233.023 36 235.238 36C237.864 36 240.491 36 243.17 36C245.539 36 245.848 36.309 245.848 38.6268C245.848 45.3226 245.848 51.9669 245.848 58.6627C245.848 71.3847 245.848 84.0552 245.848 96.7257C245.848 100.28 245.848 100.28 242.242 100.28C239.822 100.28 237.401 100.28 234.98 100.28C233.126 100.28 232.92 100.074 232.92 98.2194C232.868 88.2272 232.92 78.1835 232.92 68.0883Z" fill="white"/>
<path d="M270.622 68.1913C270.622 78.132 270.622 88.1242 270.622 98.1164C270.622 100.228 270.467 100.331 268.355 100.331C265.522 100.331 262.638 100.331 259.805 100.331C258.209 100.331 257.9 100.022 257.796 98.4254C257.745 97.8073 257.745 97.1893 257.745 96.5712V39.2449C257.745 36.103 257.848 36 261.041 36C263.617 36 266.14 36 268.664 36C270.416 36 270.622 36.206 270.622 38.0087C270.622 48.0524 270.622 58.0961 270.622 68.1913Z" fill="white"/>
<path d="M341.34 76.9993C341.34 69.9429 341.34 62.8351 341.34 55.7788C341.34 53.8215 341.495 53.667 343.452 53.667C346.336 53.667 349.272 53.667 352.156 53.667C353.753 53.667 353.959 53.9245 354.01 55.5212C354.01 56.3453 354.01 57.1694 354.01 58.045C354.01 58.3541 353.907 58.8176 354.32 58.9721C354.732 59.1266 354.938 58.7146 355.144 58.4571C357.255 56.1908 359.985 54.5941 362.973 53.77C364.621 53.2549 366.372 52.9459 368.123 52.8944C369.308 52.8944 369.977 53.358 369.977 54.5941C369.977 57.53 370.029 60.4658 369.977 63.4017C369.926 64.8953 369.462 65.2559 367.866 65.2559C365.239 65.3074 362.612 66.0285 360.346 67.3676C355.813 69.9944 354.165 74.2694 354.062 79.2655C353.959 85.5493 354.01 91.833 354.01 98.1168C354.01 100.229 353.856 100.383 351.796 100.383C349.014 100.383 346.233 100.383 343.503 100.383C341.546 100.383 341.391 100.229 341.391 98.2713C341.34 91.1635 341.34 84.0556 341.34 76.9993Z" fill="white"/>
<path d="M203.922 81.8914C198.514 81.8914 193.106 81.8914 187.698 81.8914C185.741 81.8914 185.535 82.2519 186.359 84.0546C187.234 85.9088 188.677 87.4025 190.479 88.3296C196.609 91.626 204.128 90.6474 209.176 85.8573C210 85.0847 210.618 84.9817 211.545 85.5483C213.863 86.9905 216.232 88.2781 218.602 89.6688C219.941 90.4414 219.992 90.6989 219.014 91.8835C214.481 97.4977 208.558 100.537 201.45 101.258C194.136 101.979 187.389 100.331 181.414 95.9525C177.397 92.9652 174.564 88.5872 173.585 83.6426C172.452 78.4919 172.452 73.3413 174.203 68.2937C175.903 63.1431 179.508 58.9196 184.35 56.4473C193.982 51.5027 203.613 51.1937 212.833 57.3229C219.014 61.4434 221.95 67.6242 222.516 74.938C222.619 76.5347 222.619 78.0799 222.516 79.6766C222.413 81.5823 222.104 81.8398 220.198 81.8398C214.79 81.8914 209.331 81.8914 203.922 81.8914ZM197.536 72.8778C200.317 72.8778 203.098 72.9293 205.828 72.8778C206.858 72.8778 208.249 73.4444 208.764 72.4142C209.279 71.3841 208.352 70.148 207.734 69.1694C204.334 63.7612 196.454 62.319 190.634 65.9245C188.625 67.1606 187.08 68.8088 186.307 71.0751C185.792 72.5687 186.05 72.8778 187.595 72.9293C190.943 72.9293 194.239 72.8778 197.536 72.8778Z" fill="white"/>
<path d="M305.645 52.7912C316.873 52.7397 326.865 59.6416 330.059 70.0458C332.48 77.9777 331.14 85.4461 325.835 91.8844C316.77 103.01 300.443 104.658 289.317 95.5928C288.442 94.8718 287.618 94.0992 286.845 93.2751C278.707 84.7251 278.295 70.9214 285.97 61.9593C290.863 56.0361 298.074 52.6882 305.645 52.7912ZM305.748 63.9166C298.692 63.9166 293.077 69.6338 293.026 76.8446C293.026 84.519 298.486 90.2877 305.748 90.2877C312.907 90.2362 318.367 84.519 318.367 77.0506C318.418 69.4792 313.062 63.9166 305.748 63.9166Z" fill="white"/>
<path d="M10 103.988C10.6696 104.04 11.3907 104.091 12.0602 104.091C13.5539 103.885 15.0476 103.525 16.4898 103.113C43.891 94.9231 69.9016 82.7161 93.6975 66.9037C97.921 64.0709 101.99 60.8775 105.08 56.757C108.325 52.379 107.501 48.7736 102.608 46.3013C99.0026 44.4986 95.1396 43.8805 91.1737 43.726C73.8161 43.1079 56.613 44.2411 39.616 48.001C33.3838 49.3917 26.997 50.4733 21.0738 53.1516C28.1817 53.5122 35.1865 53.3576 42.2428 53.5637C49.8657 53.7697 57.5917 53.7697 64.9055 56.4995C70.4682 58.5598 71.1893 61.8046 67.3263 66.2857C63.7724 70.3547 59.3944 73.3935 54.9648 76.4324C42.8609 84.6218 29.8814 91.4722 17.3139 98.889C14.9446 100.177 12.4723 101.413 10 103.988Z" fill="white"/>
</svg>
